<svg width="148" height="147" viewBox="0 0 148 147" fill="none" xmlns="http://www.w3.org/2000/svg">
<g clip-path="url(#clip0_723_4)">
<path d="M93.71 126.44C98.5433 130.527 102 133.02 104.08 133.92C109.68 136.34 117.28 136.89 119.96 130.13C120.66 128.357 120.81 126.46 120.41 124.44C118.72 115.86 114.75 107.5 109.6 100.38C109.2 99.8266 109.333 99.6133 110 99.7399C113.013 100.32 116.047 100.967 119.1 101.68C125.53 103.18 144.56 103.97 145.3 92.9599C145.81 85.2899 133.59 78.7599 127.67 77.0199C126.797 76.7599 126.803 76.5199 127.69 76.2999C134.923 74.4799 140.387 71.4466 144.08 67.1999C150.52 59.7899 144.74 53.6399 137.22 51.9899C129.653 50.3366 121.54 50.6299 112.88 52.8699C111.427 53.2499 111.27 52.9499 112.41 51.9699C115.337 49.4566 118.17 46.2666 120.91 42.3999C124.64 37.1499 129 30.6999 127.36 23.8699C126.26 19.3099 121.15 17.7799 116.97 18.3999C113.103 18.9733 109.567 20.6899 106.36 23.5499C105.453 24.3633 105.113 24.1699 105.34 22.9699C106.11 18.9399 106.53 11.9699 103.64 8.62993C100.63 5.14993 94.73 6.25993 91.24 8.60993C85.82 12.2499 82.76 17.2699 79.63 22.9899C79.1633 23.8433 78.8033 23.8033 78.55 22.8699C76.54 15.5499 74.06 9.23993 68.2 4.47993C65.09 1.95993 60.78 0.629928 57.18 3.09993C48.01 9.41993 50.29 24.9799 52.07 34.4199C52.25 35.3466 51.9733 35.5133 51.24 34.9199C44.3 29.1899 35.58 22.6099 26.03 22.0499C20.9 21.7499 16.21 23.7999 16.05 29.6199C15.85 37.3599 21.56 44.5899 27.25 49.4699C28.1633 50.2499 28.03 50.5266 26.85 50.2999C19.31 48.8599 7.64997 49.1899 2.77997 55.8899C-0.94003 61.0099 2.39997 67.2699 6.93997 70.5499C12.3733 74.4833 18.61 77.0266 25.65 78.1799C26.1633 78.2599 26.18 78.4033 25.7 78.6099C20.05 80.9799 15.11 83.7099 10.84 88.2599C6.57997 92.7899 4.83997 99.4599 10.48 103.71C15.41 107.43 23.11 106.64 29.02 105.07C29.5 104.937 29.6666 105.11 29.52 105.59C28.96 107.423 28.2533 109.31 27.4 111.25C25.43 115.74 23.45 124.92 27.51 128.84C34.22 135.33 45.43 127.16 50.29 122.01C52.1633 120.03 54.03 117.973 55.89 115.84C56.3366 115.327 56.5433 115.413 56.51 116.1C56.3633 118.893 56.2366 121.58 56.13 124.16C55.9033 129.353 56.79 134.28 58.79 138.94C60.62 143.2 65 146.26 69.51 145.47C72.8566 144.883 75.5466 142.77 77.58 139.13C78.8266 136.883 80.01 134.41 81.13 131.71" stroke="#F4936D" stroke-width="2"/>
<path d="M93.7099 126.44L84.2099 113.02C83.6232 112.186 83.3366 112.28 83.3499 113.3C83.3899 116.62 83.0999 120.066 82.4799 123.64C81.9732 126.513 81.5232 129.203 81.1299 131.71" stroke="#D85D1F" stroke-width="2"/>
<path d="M67.9334 90.457C73.1509 92.0322 78.7918 91.433 83.6152 88.7911C88.4385 86.1492 92.0491 81.681 93.6528 76.3695C95.2564 71.0579 94.7217 65.3382 92.1662 60.4685C89.6108 55.5988 85.2439 51.978 80.0263 50.4028C74.8088 48.8275 69.1679 49.4267 64.3445 52.0687C59.5212 54.7106 55.9106 59.1788 54.307 64.4903C52.7033 69.8018 53.238 75.5215 55.7935 80.3912C58.3489 85.2609 62.7158 88.8817 67.9334 90.457Z" stroke="#F4986B" stroke-width="2"/>
<path d="M93.71 126.44L84.21 113.02C83.6233 112.187 83.3366 112.28 83.35 113.3C83.39 116.62 83.1 120.067 82.48 123.64C81.9733 126.513 81.5233 129.203 81.13 131.71C80.01 134.41 78.8266 136.883 77.58 139.13C75.5466 142.77 72.8566 144.883 69.51 145.47C65 146.26 60.62 143.2 58.79 138.94C56.79 134.28 55.9033 129.353 56.13 124.16C56.2366 121.58 56.3633 118.893 56.51 116.1C56.5433 115.413 56.3366 115.327 55.89 115.84C54.03 117.973 52.1633 120.03 50.29 122.01C45.43 127.16 34.22 135.33 27.51 128.84C23.45 124.92 25.43 115.74 27.4 111.25C28.2533 109.31 28.96 107.423 29.52 105.59C29.6666 105.11 29.5 104.937 29.02 105.07C23.11 106.64 15.41 107.43 10.48 103.71C4.83997 99.4599 6.57997 92.7899 10.84 88.2599C15.11 83.7099 20.05 80.9799 25.7 78.6099C26.18 78.4033 26.1633 78.2599 25.65 78.1799C18.61 77.0266 12.3733 74.4833 6.93997 70.5499C2.39997 67.2699 -0.94003 61.0099 2.77997 55.8899C7.64997 49.1899 19.31 48.8599 26.85 50.2999C28.03 50.5266 28.1633 50.2499 27.25 49.4699C21.56 44.5899 15.85 37.3599 16.05 29.6199C16.21 23.7999 20.9 21.7499 26.03 22.0499C35.58 22.6099 44.3 29.1899 51.24 34.9199C51.9733 35.5133 52.25 35.3466 52.07 34.4199C50.29 24.9799 48.01 9.41993 57.18 3.09993C60.78 0.629928 65.09 1.95993 68.2 4.47993C74.06 9.23993 76.54 15.5499 78.55 22.8699C78.8033 23.8033 79.1633 23.8433 79.63 22.9899C82.76 17.2699 85.82 12.2499 91.24 8.60993C94.73 6.25993 100.63 5.14993 103.64 8.62993C106.53 11.9699 106.11 18.9399 105.34 22.9699C105.113 24.1699 105.453 24.3633 106.36 23.5499C109.567 20.6899 113.103 18.9733 116.97 18.3999C121.15 17.7799 126.26 19.3099 127.36 23.8699C129 30.6999 124.64 37.1499 120.91 42.3999C118.17 46.2666 115.337 49.4566 112.41 51.9699C111.27 52.9499 111.427 53.2499 112.88 52.8699C121.54 50.6299 129.653 50.3366 137.22 51.9899C144.74 53.6399 150.52 59.7899 144.08 67.1999C140.387 71.4466 134.923 74.4799 127.69 76.2999C126.803 76.5199 126.797 76.7599 127.67 77.0199C133.59 78.7599 145.81 85.2899 145.3 92.9599C144.56 103.97 125.53 103.18 119.1 101.68C116.047 100.967 113.013 100.32 110 99.7399C109.333 99.6133 109.2 99.8266 109.6 100.38C114.75 107.5 118.72 115.86 120.41 124.44C120.81 126.46 120.66 128.357 119.96 130.13C117.28 136.89 109.68 136.34 104.08 133.92C102 133.02 98.5433 130.527 93.71 126.44ZM67.9335 90.457C73.151 92.0323 78.792 91.433 83.6153 88.7911C88.4386 86.1492 92.0492 81.681 93.6529 76.3695C95.2565 71.058 94.7218 65.3383 92.1663 60.4686C89.6109 55.5989 85.244 51.9781 80.0265 50.4028C74.8089 48.8276 69.168 49.4268 64.3447 52.0687C59.5213 54.7106 55.9107 59.1788 54.3071 64.4903C52.7034 69.8019 53.2382 75.5216 55.7936 80.3913C58.349 85.261 62.7159 88.8817 67.9335 90.457Z" fill="#F26C3B"/>
<path d="M54.3071 64.4904C50.9677 75.5511 57.0684 87.1768 67.9335 90.4572C78.7985 93.7375 90.3135 87.4303 93.6529 76.3697C96.9923 65.309 90.8916 53.6833 80.0265 50.4029C69.1615 47.1226 57.6465 53.4298 54.3071 64.4904Z" fill="#F6C49B"/>
</g>
<defs>
<clipPath id="clip0_723_4">
<rect width="148" height="147" fill="white"/>
</clipPath>
</defs>
</svg>
